<svg height="512" viewBox="0 0 152 152" width="512" xmlns="http://www.w3.org/2000/svg" xmlns:xlink="http://www.w3.org/1999/xlink"><radialGradient id="radial-gradient" cx="76" cy="76" gradientUnits="userSpaceOnUse" r="76"><stop offset="0" stop-color="#42a5f5"/><stop offset="1" stop-color="#1565c0"/></radialGradient><g id="Layer_2" data-name="Layer 2"><g id="Circle"><g id="_13.Behance" data-name="13.Behance"><rect id="Background" fill="url(#radial-gradient)" height="152" rx="76" width="152"/><g fill="#fff"><path id="Shade" d="m133.2 26c-11.08 20.34-26.75 41.32-46.33 60.9s-40.56 35.22-60.87 46.3q-1.91-1.66-3.71-3.46a76 76 0 1 1 107.45-107.48q1.8 1.8 3.46 3.74z" opacity=".1"/><g id="Icon"><path d="m69.86 72.06a13.45 13.45 0 0 0 -11.51-20.72h-20.6a1.74 1.74 0 0 0 -1.75 1.74v45.31a1.74 1.74 0 0 0 1.75 1.74h23a15.44 15.44 0 0 0 9.1-28.07zm-24.86-11.69h13.52a4.43 4.43 0 0 1 0 8.86h-13.52zm16 30.72h-16v-12.82h16a6.41 6.41 0 0 1 0 12.82z"/><path d="m116 81.53c0-10.53-8.31-19.13-18.53-19.13s-18.54 8.6-18.54 19.13 8.32 19.13 18.54 19.13a18.37 18.37 0 0 0 15.41-8.5 20 20 0 0 0 1.17-2.07.79.79 0 0 0 -.71-1.13h-9.11a.79.79 0 0 0 -.54.22 8.59 8.59 0 0 1 -6.22 2.47 9.66 9.66 0 0 1 -9.27-7.9h26a1.82 1.82 0 0 0 1.8-1.84zm-18.53-10.09a9.36 9.36 0 0 1 7.93 4.56h-15.87a9.38 9.38 0 0 1 7.94-4.56z"/><path d="m105.17 60.16h-16.44a1.39 1.39 0 0 1 -1.39-1.39v-4.12a1.39 1.39 0 0 1 1.39-1.39h16.44a1.39 1.39 0 0 1 1.39 1.39v4.12a1.39 1.39 0 0 1 -1.39 1.39z"/></g></g></g></g></g></svg>