<svg height="512" viewBox="0 0 152 152" width="512" xmlns="http://www.w3.org/2000/svg" xmlns:xlink="http://www.w3.org/1999/xlink"><radialGradient id="radial-gradient" cx="76" cy="76" gradientUnits="userSpaceOnUse" r="76"><stop offset="0" stop-color="#f24f8e"/><stop offset="1" stop-color="#cc4278"/></radialGradient><g id="Layer_2" data-name="Layer 2"><g id="Circle"><g id="_17.Dribbble" data-name="17.Dribbble"><rect id="Background" fill="url(#radial-gradient)" height="152" rx="76" width="152"/><g fill="#fff"><path id="Shade" d="m133.2 26c-11.08 20.34-26.75 41.32-46.33 60.9s-40.56 35.22-60.87 46.3q-1.91-1.66-3.71-3.46a76 76 0 1 1 107.45-107.48q1.8 1.8 3.46 3.74z" opacity=".1"/><g id="Icon"><path d="m88 79.62a160.59 160.59 0 0 1 8.73 30.58 40.18 40.18 0 0 0 18.69-27.54 49.8 49.8 0 0 0 -27.42-3z"/><path d="m104.32 47.75a40.06 40.06 0 0 0 -40.41-9.85 161.56 161.56 0 0 1 16.3 24.81 93.06 93.06 0 0 0 24.11-14.96z"/><path d="m107.46 51.29a97 97 0 0 1 -25.08 15.62q2 4.07 3.82 8.27a54.66 54.66 0 0 1 29.8 2.63c0-.6 0-1.2 0-1.81a39.67 39.67 0 0 0 -8.54-24.71z"/><path d="m51.38 107.53a40.1 40.1 0 0 0 41 5 157.75 157.75 0 0 0 -9-31.86 50.07 50.07 0 0 0 -32 26.86z"/><path d="m75.24 78.5a55.29 55.29 0 0 1 6.29-2.22q-1.69-3.86-3.53-7.61a96.87 96.87 0 0 1 -33.84 6c-2.72 0-5.41-.12-8.09-.33v1.61a39.71 39.71 0 0 0 11.72 28.28 54.76 54.76 0 0 1 27.45-25.73z"/><path d="m75.76 64.46a158.74 158.74 0 0 0 -16.56-24.78 40.17 40.17 0 0 0 -22.71 30c2.52.2 5.06.31 7.63.31a92.26 92.26 0 0 0 31.64-5.53z"/></g></g></g></g></g></svg>