<svg height="512" viewBox="0 0 152 152" width="512" xmlns="http://www.w3.org/2000/svg" xmlns:xlink="http://www.w3.org/1999/xlink"><radialGradient id="radial-gradient" cx="76" cy="76" gradientUnits="userSpaceOnUse" r="76"><stop offset="0" stop-color="#42a5f5"/><stop offset="1" stop-color="#1565c0"/></radialGradient><g id="Layer_2" data-name="Layer 2"><g id="Circle"><g id="_07.Linkedin" data-name="07.Linkedin"><rect id="Background" fill="url(#radial-gradient)" height="152" rx="76" width="152"/><g fill="#fff"><path id="Shade" d="m133.2 26c-11.08 20.34-26.75 41.32-46.33 60.9s-40.56 35.22-60.87 46.3q-1.91-1.66-3.71-3.46a76 76 0 1 1 107.45-107.48q1.8 1.8 3.46 3.74z" opacity=".1"/><g id="Icon"><path d="m116 116v-29.34c0-14.36-3.09-25.41-19.87-25.41-8.07 0-13.48 4.42-15.69 8.62h-.23v-7.28h-15.91v53.41h16.56v-26.45c0-7 1.32-13.7 10-13.7s8.62 8 8.62 14.15v26z"/><path d="m37.32 62.59h16.59v53.41h-16.59z"/><path d="m45.61 36a9.65 9.65 0 1 0 9.6 9.61 9.61 9.61 0 0 0 -9.6-9.61z"/></g></g></g></g></g></svg>