<svg height="512" viewBox="0 0 152 152" width="512" xmlns="http://www.w3.org/2000/svg" xmlns:xlink="http://www.w3.org/1999/xlink"><radialGradient id="radial-gradient" cx="76" cy="76" gradientUnits="userSpaceOnUse" r="76"><stop offset="0" stop-color="#29b6f6"/><stop offset="1" stop-color="#0277bd"/></radialGradient><g id="Layer_2" data-name="Layer 2"><g id="Circle"><g id="_04.Twitter" data-name="04.Twitter"><rect id="Background" fill="url(#radial-gradient)" height="152" rx="76" width="152"/><g fill="#fff"><path id="Shade" d="m133.2 26c-11.08 20.34-26.75 41.32-46.33 60.9s-40.56 35.22-60.87 46.3q-1.91-1.66-3.71-3.46a76 76 0 1 1 107.45-107.48q1.8 1.8 3.46 3.74z" opacity=".1"/><path id="Icon" d="m125.23 45.47a42 42 0 0 1 -11.63 3.19 20.1 20.1 0 0 0 8.88-11.16 40.32 40.32 0 0 1 -12.8 4.89 20.18 20.18 0 0 0 -34.92 13.8 20.87 20.87 0 0 0 .47 4.6 57.13 57.13 0 0 1 -41.61-21.11 20.2 20.2 0 0 0 6.21 27 19.79 19.79 0 0 1 -9.12-2.49v.22a20.28 20.28 0 0 0 16.17 19.82 20.07 20.07 0 0 1 -5.29.66 17.87 17.87 0 0 1 -3.82-.34 20.37 20.37 0 0 0 18.86 14.06 40.59 40.59 0 0 1 -25 8.61 38.34 38.34 0 0 1 -4.83-.28 56.8 56.8 0 0 0 31 9.06c37.14 0 57.45-30.77 57.45-57.44 0-.89 0-1.75-.08-2.61a40 40 0 0 0 10.06-10.48z"/></g></g></g></g></svg>