<svg height="512" viewBox="0 0 152 152" width="512" xmlns="http://www.w3.org/2000/svg" xmlns:xlink="http://www.w3.org/1999/xlink"><radialGradient id="radial-gradient" cx="76" cy="76" gradientUnits="userSpaceOnUse" r="76"><stop offset="0" stop-color="#ef5350"/><stop offset="1" stop-color="#c62828"/></radialGradient><g id="Layer_2" data-name="Layer 2"><g id="Circle"><g id="_02.YouTube" data-name="02.YouTube"><rect id="Background" fill="url(#radial-gradient)" height="152" rx="76" width="152"/><g fill="#fff"><path id="Shade" d="m133.2 26c-11.08 20.34-26.75 41.32-46.33 60.9s-40.56 35.22-60.87 46.3q-1.91-1.66-3.71-3.46a76 76 0 1 1 107.45-107.48q1.8 1.8 3.46 3.74z" opacity=".1"/><path id="Icon" d="m100.87 47.41h-49.74a15.13 15.13 0 0 0 -15.13 15.14v26.9a15.13 15.13 0 0 0 15.13 15.14h49.74a15.13 15.13 0 0 0 15.13-15.14v-26.9a15.13 15.13 0 0 0 -15.13-15.14zm-35.41 40.85v-24.52l21.08 12.26z"/></g></g></g></g></svg>